<svg width="60" height="60" viewBox="0 0 60 60" fill="none" xmlns="http://www.w3.org/2000/svg">
<g clip-path="url(#clip0_33304_66)">
<mask id="path-1-inside-1_33304_66" fill="white">
<path d="M23.3648 40.7044C23.3648 42.1631 22.4229 43.288 21.0281 43.6202V44.2898C21.0281 44.7752 20.6346 45.1688 20.1492 45.1688C19.6638 45.1688 19.2703 44.7752 19.2703 44.2898V43.5902C18.0345 43.2131 17.1328 42.0621 17.1328 40.7045C17.1328 40.219 17.5263 39.8256 18.0117 39.8256C18.4971 39.8256 18.8906 40.219 18.8906 40.7045C18.8906 41.3985 19.4552 41.963 20.1492 41.963C20.8218 41.963 21.6071 41.6334 21.6071 40.7044C21.6071 39.7754 20.8218 39.4459 20.1492 39.4459C18.2861 39.4459 16.9337 38.1772 16.9337 36.4294C16.9337 34.9706 17.8757 33.8457 19.2704 33.5135V32.8439C19.2704 32.3585 19.6639 31.965 20.1493 31.965C20.6347 31.965 21.0282 32.3585 21.0282 32.8439V33.5435C22.2642 33.9206 23.1657 35.0716 23.1657 36.4294C23.1657 36.9148 22.7722 37.3083 22.2868 37.3083C21.8014 37.3083 21.4079 36.9148 21.4079 36.4294C21.4079 35.7354 20.8433 35.1708 20.1492 35.1708C19.4768 35.1708 18.6915 35.5003 18.6915 36.4294C18.6915 37.3584 19.4768 37.6881 20.1492 37.6881C22.0124 37.6881 23.3648 38.9566 23.3648 40.7044ZM48.5118 36.5337C48.5118 41.9748 44.0851 46.4014 38.6441 46.4014C33.2031 46.4014 28.7764 41.9748 28.7764 36.5337C28.7764 31.0925 33.203 26.666 38.6441 26.666C44.0852 26.666 48.5118 31.0927 48.5118 36.5337ZM46.73 36.5337C46.73 32.075 43.1027 28.4477 38.6441 28.4477C34.1855 28.4477 30.5582 32.075 30.5582 36.5337C30.5582 40.9923 34.1855 44.6196 38.6441 44.6196C43.1027 44.6196 46.73 40.9923 46.73 36.5337ZM59.8828 54.7208C59.8828 55.5384 59.5659 56.3053 58.9908 56.8806C58.3954 57.4759 57.6132 57.7736 56.8311 57.7736C56.049 57.7736 55.2668 57.4759 54.6715 56.8806L45.4616 47.6706C43.4759 48.8906 41.1408 49.5953 38.6441 49.5953C38.2527 49.5953 37.8655 49.577 37.4828 49.543C35.8132 52.0502 33.3964 53.9644 30.29 55.2362C27.3953 56.4214 23.9835 57.0224 20.1492 57.0224C14.513 57.0224 9.72844 55.6963 6.31277 53.1872C2.20172 50.1673 0.117188 45.59 0.117188 39.5824C0.117188 35.1378 1.58988 30.7068 4.37625 26.7682C6.40113 23.906 9.10898 21.3427 12.1371 19.3913C11.3752 18.8603 10.8751 17.9783 10.8751 16.9813C10.8751 15.7215 11.6727 14.6448 12.7894 14.2289C12.7194 14.1513 12.6498 14.0745 12.5791 13.9957C9.45926 10.5197 8.36215 6.55992 10.0271 4.785C10.6134 4.15969 12.3626 3.0218 15.9914 5.83875C16.8945 3.57293 18.4395 2.22656 20.1491 2.22656C21.859 2.22656 23.4039 3.57305 24.3068 5.83863C27.9359 3.0218 29.6848 4.1598 30.2711 4.785C31.9361 6.56004 30.8389 10.5199 27.7191 13.9958C27.6484 14.0746 27.5783 14.1512 27.508 14.2287C28.625 14.6443 29.4231 15.7213 29.4231 16.9814C29.4231 17.9779 28.9237 18.8593 28.1625 19.3904C30.3033 20.7677 32.2809 22.4463 33.9769 24.3352C35.427 23.7785 37.0003 23.4724 38.644 23.4724C45.8461 23.4724 51.7055 29.3318 51.7055 36.5339C51.7055 39.0305 51.0009 41.3654 49.7809 43.3512L58.9908 52.5611C59.5661 53.1362 59.8828 53.9033 59.8828 54.7208ZM13.8872 12.8216C14.2662 13.2438 14.6338 13.6465 15.0036 14.0452H25.2768C25.6448 13.6613 26.0248 13.2518 26.4109 12.8216C29.3374 9.56121 29.6412 6.68273 28.989 5.98758C28.5593 5.52926 27.2517 5.7552 25.3001 7.29363C24.882 7.62328 24.3209 7.73355 23.7994 7.58848C23.2955 7.44832 22.9046 7.09769 22.7273 6.62695C22.1127 4.99699 21.1248 3.98438 20.1491 3.98438C19.1734 3.98438 18.1855 4.99711 17.5709 6.62719C17.3937 7.09769 17.0029 7.4482 16.4989 7.58836C15.9776 7.73367 15.4164 7.6234 14.998 7.29328C13.0466 5.75531 11.7391 5.52879 11.3092 5.98746C10.657 6.68273 10.9608 9.56109 13.8872 12.8216ZM12.6329 16.9813C12.6329 17.631 13.1616 18.1596 13.8112 18.1596H26.4871C27.1368 18.1596 27.6654 17.631 27.6654 16.9813C27.6654 16.3316 27.1368 15.803 26.4871 15.803H13.8112C13.1616 15.803 12.6329 16.3316 12.6329 16.9813ZM35.5473 49.2233C33.7668 48.7888 32.1284 47.9884 30.716 46.9064C28.1701 50.1299 24.2877 52.0288 20.1492 52.0288C12.7263 52.0288 6.6873 45.9898 6.6873 38.5669C6.6873 31.144 12.7263 25.105 20.1492 25.105C23.2709 25.105 26.2556 26.173 28.6533 28.1306C29.675 26.9177 30.913 25.8929 32.3074 25.116C30.3735 23.0484 28.0804 21.2671 25.6111 19.9174H14.6848C8.7307 23.1776 1.875 30.2316 1.875 39.5824C1.875 53.2271 13.3243 55.2645 20.1491 55.2645C27.1388 55.2645 32.5434 53.1293 35.5473 49.2233ZM25.5826 36.5338C25.5826 35.3856 26.1964 32.2768 26.4759 31.215C24.9711 29.5672 22.3948 28.8679 20.1492 28.8679C15.3796 29.552 10.4503 34.1879 10.4503 38.5668C10.4503 42.9456 16.25 47.5 20.1492 48.2657C23.0212 48.2657 26.6448 46.6504 28.0612 44.1797C27.1323 42.3853 25.5826 38.6899 25.5826 36.5338ZM27.6101 29.552C25.5141 27.8142 22.8933 26.8628 20.1492 26.8628C13.6955 26.8628 8.44512 32.1132 8.44512 38.5669C8.44512 45.0205 13.6956 50.271 20.1492 50.271C23.7778 50.271 27.1809 48.5923 29.3937 45.7459C28.9098 45.26 28.4644 44.7362 28.0612 44.1797C26.2588 46.7304 23.342 48.2657 20.1492 48.2657C13.4779 45.7459 11.25 43.75 10.4503 38.5668C10.4503 33.2188 16.9337 28.8679 20.1492 28.8679C22.5369 28.8679 24.8779 29.7653 26.6487 31.3677C26.9222 30.7352 27.2441 30.1284 27.6101 29.552ZM38.6441 47.8373C44.877 47.8373 49.9478 42.7665 49.9478 36.5338C49.9478 30.3008 44.877 25.2301 38.6441 25.2301C32.4113 25.2301 27.3404 30.3009 27.3404 36.5338C27.3404 42.7666 32.4113 47.8373 38.6441 47.8373ZM46.9134 46.6364L53.6896 53.4125L55.5231 51.579L48.7468 44.8029C48.1976 45.4729 47.5832 46.0871 46.9134 46.6364ZM58.125 54.7208C58.125 54.3728 57.9911 54.0472 57.7479 53.8039L56.766 52.822L54.9325 54.6555L55.9144 55.6375C56.4199 56.1429 57.2425 56.1429 57.7479 55.6375C57.9911 55.3944 58.125 55.0688 58.125 54.7208ZM43.6341 32.5711C43.2654 32.2553 42.7107 32.2978 42.3948 32.6664L37.3976 38.4964L34.8802 35.693C34.5559 35.3319 34.0002 35.302 33.639 35.6263C33.2779 35.9507 33.248 36.5062 33.5723 36.8674L36.759 40.4162C36.9258 40.602 37.1636 40.7079 37.4129 40.7079L37.423 40.7078C37.676 40.705 37.9155 40.593 38.0802 40.401L43.7295 33.8104C44.0454 33.4419 44.0026 32.8869 43.6341 32.5711Z"/>
</mask>
<path d="M21.0281 43.6202L20.333 40.7019L18.0281 41.2509V43.6202H21.0281ZM19.2703 43.5902H22.2703V41.3691L20.1459 40.7208L19.2703 43.5902ZM19.2704 33.5135L19.9656 36.4319L22.2704 35.8829V33.5135H19.2704ZM21.0282 33.5435H18.0282V35.7647L20.1528 36.4129L21.0282 33.5435ZM58.9908 56.8806L61.1119 59.0021L61.1123 59.0017L58.9908 56.8806ZM54.6715 56.8806L52.5501 59.0019L52.5502 59.0019L54.6715 56.8806ZM45.4616 47.6706L47.5829 45.5493L45.9086 43.8749L43.8911 45.1145L45.4616 47.6706ZM37.4828 49.543L37.7481 46.5548L35.9733 46.3972L34.9857 47.8802L37.4828 49.543ZM30.29 55.2362L29.1534 52.4599L29.1533 52.4599L30.29 55.2362ZM6.31277 53.1872L8.08883 50.7694H8.08883L6.31277 53.1872ZM4.37625 26.7682L1.92717 25.0356H1.92717L4.37625 26.7682ZM12.1371 19.3913L13.7622 21.913L17.5241 19.4887L13.8523 16.9299L12.1371 19.3913ZM12.7894 14.2289L13.8364 17.0403L17.9745 15.4991L15.0172 12.2198L12.7894 14.2289ZM12.5791 13.9957L14.812 11.9921L14.8117 11.9918L12.5791 13.9957ZM10.0271 4.785L12.2151 6.83749L12.2157 6.83693L10.0271 4.785ZM15.9914 5.83875L14.1518 8.20854L17.3018 10.6538L18.7782 6.94944L15.9914 5.83875ZM24.3068 5.83863L21.52 6.9493L22.9963 10.6535L26.1463 8.20851L24.3068 5.83863ZM30.2711 4.785L28.0827 6.83714L28.083 6.83741L30.2711 4.785ZM27.7191 13.9958L25.4865 11.9919L25.4862 11.9922L27.7191 13.9958ZM27.508 14.2287L25.2867 12.2123L22.3074 15.4944L26.4618 17.0403L27.508 14.2287ZM28.1625 19.3904L26.446 16.93L22.7747 19.4913L26.5393 21.9134L28.1625 19.3904ZM33.9769 24.3352L31.7446 26.3394L33.1242 27.8759L35.052 27.1359L33.9769 24.3352ZM49.7809 43.3512L47.2248 41.7807L45.9853 43.7982L47.6596 45.4725L49.7809 43.3512ZM58.9908 52.5611L56.8695 54.6824L56.8697 54.6826L58.9908 52.5611ZM13.8872 12.8216L11.6546 14.8254L11.6546 14.8255L13.8872 12.8216ZM15.0036 14.0452L12.8043 16.0855L13.6946 17.0452H15.0036V14.0452ZM25.2768 14.0452V17.0452H26.5565L27.4422 16.1214L25.2768 14.0452ZM26.4109 12.8216L24.1784 10.8177L24.1783 10.8177L26.4109 12.8216ZM28.989 5.98758L26.8005 8.03953L26.8011 8.04014L28.989 5.98758ZM25.3001 7.29363L23.4429 4.93762L23.4427 4.93775L25.3001 7.29363ZM23.7994 7.58848L24.6034 4.69824L24.6033 4.69819L23.7994 7.58848ZM22.7273 6.62695L25.5348 5.56952L25.5344 5.56843L22.7273 6.62695ZM17.5709 6.62719L14.7638 5.56873L14.7633 5.56991L17.5709 6.62719ZM16.4989 7.58836L15.695 4.69807L15.6935 4.6985L16.4989 7.58836ZM14.998 7.29328L16.8564 4.93818L16.855 4.9371L14.998 7.29328ZM11.3092 5.98746L13.4973 8.03984L13.4979 8.03917L11.3092 5.98746ZM35.5473 49.2233L37.9254 51.0522L40.7334 47.4009L36.2586 46.3089L35.5473 49.2233ZM30.716 46.9064L32.5405 44.5249L30.1939 42.7272L28.3617 45.047L30.716 46.9064ZM28.6533 28.1306L26.7559 30.4544L29.0443 32.3228L30.9477 30.0634L28.6533 28.1306ZM32.3074 25.116L33.7676 27.7366L37.1196 25.8689L34.4983 23.0666L32.3074 25.116ZM25.6111 19.9174L27.0499 17.285L26.3775 16.9174H25.6111V19.9174ZM14.6848 19.9174V16.9174H13.9172L13.244 17.2861L14.6848 19.9174ZM26.4759 31.215L29.3771 31.9788L29.793 30.3987L28.6912 29.1921L26.4759 31.215ZM20.1492 48.2657L19.5712 51.2094L19.8575 51.2657H20.1492V48.2657ZM27.6101 29.552L30.1428 31.16L31.5591 28.9291L29.5248 27.2425L27.6101 29.552ZM29.3937 45.7459L31.7622 47.5871L33.3838 45.5011L31.5193 43.6289L29.3937 45.7459ZM26.6487 31.3677L24.6358 33.5921L27.7403 36.4014L29.4022 32.5585L26.6487 31.3677ZM46.9134 46.6364L45.011 44.3167L42.4508 46.4164L44.7921 48.7577L46.9134 46.6364ZM53.6896 53.4125L51.5682 55.5339L53.6896 57.6552L55.8109 55.5339L53.6896 53.4125ZM55.5231 51.579L57.6444 53.7003L59.7657 51.579L57.6444 49.4577L55.5231 51.579ZM48.7468 44.8029L50.8681 42.6815L48.5264 40.3399L46.4268 42.9009L48.7468 44.8029ZM57.7479 53.8039L59.8697 51.6831L59.8692 51.6826L57.7479 53.8039ZM56.766 52.822L58.8873 50.7007L56.766 48.5794L54.6447 50.7007L56.766 52.822ZM54.9325 54.6555L52.8111 52.5342L50.6898 54.6555L52.8111 56.7769L54.9325 54.6555ZM55.9144 55.6375L53.793 57.7588L53.7933 57.759L55.9144 55.6375ZM57.7479 55.6375L55.6271 53.5156L55.6266 53.5161L57.7479 55.6375ZM43.6341 32.5711L45.5861 30.2931L45.5858 30.2928L43.6341 32.5711ZM42.3948 32.6664L40.1171 30.7139L40.117 30.714L42.3948 32.6664ZM37.3976 38.4964L35.1654 40.5008L37.45 43.045L39.6753 40.4488L37.3976 38.4964ZM34.8802 35.693L37.1123 33.6886L37.1122 33.6884L34.8802 35.693ZM33.639 35.6263L31.6349 33.394L31.6345 33.3943L33.639 35.6263ZM33.5723 36.8674L35.8045 34.863L35.8043 34.8628L33.5723 36.8674ZM36.759 40.4162L38.9914 38.412L38.9912 38.4118L36.759 40.4162ZM37.4129 40.7079V43.7079H37.4303L37.4477 43.7077L37.4129 40.7079ZM37.423 40.7078L37.3897 37.708L37.3882 37.708L37.423 40.7078ZM38.0802 40.401L40.3579 42.3535L40.3579 42.3534L38.0802 40.401ZM43.7295 33.8104L41.4521 31.8575L41.4517 31.8579L43.7295 33.8104ZM20.3648 40.7044C20.3648 40.725 20.3632 40.7372 20.3624 40.742C20.3616 40.7468 20.3613 40.7461 20.3631 40.741C20.3649 40.7359 20.368 40.7285 20.3729 40.7196C20.3779 40.7108 20.3837 40.7022 20.3899 40.6945C20.3962 40.6868 20.4019 40.6812 20.406 40.6776C20.4102 40.6739 20.4118 40.6731 20.4098 40.6743C20.4066 40.6764 20.3837 40.6898 20.333 40.7019L21.7233 46.5386C24.4034 45.9002 26.3648 43.6188 26.3648 40.7044H20.3648ZM18.0281 43.6202V44.2898H24.0281V43.6202H18.0281ZM18.0281 44.2898C18.0281 43.1184 18.9778 42.1688 20.1492 42.1688V48.1688C22.2915 48.1688 24.0281 46.4321 24.0281 44.2898H18.0281ZM20.1492 42.1688C21.3207 42.1688 22.2703 43.1184 22.2703 44.2898H16.2703C16.2703 46.4321 18.007 48.1688 20.1492 48.1688V42.1688ZM22.2703 44.2898V43.5902H16.2703V44.2898H22.2703ZM20.1459 40.7208C20.1474 40.7213 20.1465 40.7213 20.1438 40.7194C20.1407 40.7172 20.1374 40.714 20.1348 40.7107C20.1325 40.7076 20.1323 40.7063 20.1327 40.7074C20.1328 40.708 20.133 40.7086 20.133 40.7088C20.1331 40.7091 20.1328 40.7079 20.1328 40.7045H14.1328C14.1328 43.4214 15.9351 45.7091 18.3947 46.4596L20.1459 40.7208ZM20.1328 40.7045C20.1328 41.8761 19.1829 42.8256 18.0117 42.8256V36.8256C15.8697 36.8256 14.1328 38.5619 14.1328 40.7045H20.1328ZM18.0117 42.8256C16.8405 42.8256 15.8906 41.8761 15.8906 40.7045H21.8906C21.8906 38.5619 20.1537 36.8256 18.0117 36.8256V42.8256ZM15.8906 40.7045C15.8906 43.0557 17.7987 44.963 20.1492 44.963V38.963C21.1117 38.963 21.8906 39.7413 21.8906 40.7045H15.8906ZM20.1492 44.963C20.9074 44.963 21.9353 44.7879 22.8638 44.1306C23.9283 43.377 24.6071 42.1548 24.6071 40.7044H18.6071C18.6071 40.5024 18.6532 40.2144 18.8132 39.9072C18.972 39.6023 19.1901 39.38 19.397 39.2335C19.7646 38.9733 20.0635 38.963 20.1492 38.963V44.963ZM24.6071 40.7044C24.6071 39.2539 23.9282 38.0317 22.8637 37.2782C21.9353 36.621 20.9074 36.4459 20.1492 36.4459V42.4459C20.0635 42.4459 19.7647 42.4356 19.3971 42.1754C19.1902 42.0289 18.972 41.8066 18.8133 41.5018C18.6532 41.1945 18.6071 40.9065 18.6071 40.7044H24.6071ZM20.1492 36.4459C20.0248 36.4459 19.9504 36.425 19.917 36.4124C19.8838 36.4 19.882 36.3927 19.8953 36.4052C19.9094 36.4184 19.9239 36.4385 19.9327 36.459C19.9417 36.48 19.9337 36.4754 19.9337 36.4294H13.9337C13.9337 40.0117 16.8126 42.4459 20.1492 42.4459V36.4459ZM19.9337 36.4294C19.9337 36.4087 19.9354 36.3965 19.9362 36.3917C19.937 36.3869 19.9372 36.3877 19.9354 36.3927C19.9337 36.3978 19.9306 36.4053 19.9256 36.4141C19.9207 36.423 19.9149 36.4315 19.9086 36.4392C19.9024 36.4469 19.8967 36.4526 19.8925 36.4562C19.8884 36.4598 19.8867 36.4606 19.8887 36.4594C19.892 36.4574 19.9148 36.444 19.9656 36.4319L18.5753 30.5952C15.8951 31.2336 13.9337 33.515 13.9337 36.4294H19.9337ZM22.2704 33.5135V32.8439H16.2704V33.5135H22.2704ZM22.2704 32.8439C22.2704 34.0154 21.3208 34.965 20.1493 34.965V28.965C18.0071 28.965 16.2704 30.7017 16.2704 32.8439H22.2704ZM20.1493 34.965C18.9779 34.965 18.0282 34.0154 18.0282 32.8439H24.0282C24.0282 30.7017 22.2916 28.965 20.1493 28.965V34.965ZM18.0282 32.8439V33.5435H24.0282V32.8439H18.0282ZM20.1528 36.4129C20.1513 36.4125 20.1521 36.4124 20.1548 36.4144C20.1579 36.4165 20.1612 36.4197 20.1637 36.423C20.166 36.4261 20.1663 36.4274 20.1659 36.4263C20.1657 36.4257 20.1656 36.4251 20.1655 36.4249C20.1655 36.4246 20.1657 36.4259 20.1657 36.4294H26.1657C26.1657 33.7126 24.3637 31.4247 21.9037 30.6741L20.1528 36.4129ZM20.1657 36.4294C20.1657 35.2579 21.1154 34.3083 22.2868 34.3083V40.3083C24.4291 40.3083 26.1657 38.5716 26.1657 36.4294H20.1657ZM22.2868 34.3083C23.4583 34.3083 24.4079 35.2579 24.4079 36.4294H18.4079C18.4079 38.5716 20.1446 40.3083 22.2868 40.3083V34.3083ZM24.4079 36.4294C24.4079 34.0784 22.5 32.1708 20.1492 32.1708V38.1708C19.1866 38.1708 18.4079 37.3924 18.4079 36.4294H24.4079ZM20.1492 32.1708C19.391 32.1708 18.3631 32.3459 17.4346 33.0033C16.3702 33.757 15.6915 34.9791 15.6915 36.4294H21.6915C21.6915 36.6313 21.6455 36.9193 21.4855 37.2264C21.3268 37.5312 21.1087 37.7536 20.9018 37.9001C20.5341 38.1604 20.2351 38.1708 20.1492 38.1708V32.1708ZM15.6915 36.4294C15.6915 37.8796 16.3701 39.1017 17.4345 39.8554C18.3629 40.5129 19.3908 40.6881 20.1492 40.6881V34.6881C20.2352 34.6881 20.5343 34.6985 20.902 34.9588C21.1088 35.1054 21.3269 35.3277 21.4856 35.6324C21.6455 35.9395 21.6915 36.2274 21.6915 36.4294H15.6915ZM20.1492 40.6881C20.2737 40.6881 20.3481 40.709 20.3816 40.7216C20.4148 40.7341 20.4166 40.7414 20.4033 40.7289C20.3892 40.7157 20.3747 40.6956 20.3659 40.675C20.3569 40.6539 20.3648 40.6584 20.3648 40.7044H26.3648C26.3648 37.1218 23.4854 34.6881 20.1492 34.6881V40.6881ZM45.5118 36.5337C45.5118 40.318 42.4282 43.4014 38.6441 43.4014V49.4014C45.742 49.4014 51.5118 43.6316 51.5118 36.5337H45.5118ZM38.6441 43.4014C34.86 43.4014 31.7764 40.318 31.7764 36.5337H25.7764C25.7764 43.6316 31.5462 49.4014 38.6441 49.4014V43.4014ZM31.7764 36.5337C31.7764 32.7494 34.8598 29.666 38.6441 29.666V23.666C31.5461 23.666 25.7764 29.4357 25.7764 36.5337H31.7764ZM38.6441 29.666C42.4284 29.666 45.5118 32.7495 45.5118 36.5337H51.5118C51.5118 29.4358 45.7421 23.666 38.6441 23.666V29.666ZM49.73 36.5337C49.73 30.4182 44.7596 25.4477 38.6441 25.4477V31.4477C41.4459 31.4477 43.73 33.7319 43.73 36.5337H49.73ZM38.6441 25.4477C32.5286 25.4477 27.5582 30.4182 27.5582 36.5337H33.5582C33.5582 33.7319 35.8423 31.4477 38.6441 31.4477V25.4477ZM27.5582 36.5337C27.5582 42.6492 32.5286 47.6196 38.6441 47.6196V41.6196C35.8423 41.6196 33.5582 39.3354 33.5582 36.5337H27.5582ZM38.6441 47.6196C44.7596 47.6196 49.73 42.6492 49.73 36.5337H43.73C43.73 39.3354 41.4459 41.6196 38.6441 41.6196V47.6196ZM56.8828 54.7208C56.8828 54.7312 56.8818 54.7376 56.8812 54.7409C56.8806 54.7442 56.8799 54.7457 56.8797 54.7462C56.8795 54.7468 56.8791 54.7476 56.8781 54.7491C56.8771 54.7506 56.8746 54.7542 56.8692 54.7595L61.1123 59.0017C62.2528 57.861 62.8828 56.33 62.8828 54.7208H56.8828ZM56.8697 54.7591C56.865 54.7637 56.862 54.7659 56.8606 54.7668C56.8591 54.7677 56.8575 54.7686 56.8555 54.7694C56.8509 54.7713 56.8424 54.7736 56.8311 54.7736V60.7736C58.3735 60.7736 59.9294 60.1844 61.1119 59.0021L56.8697 54.7591ZM56.8311 54.7736C56.8198 54.7736 56.8114 54.7713 56.8067 54.7694C56.8047 54.7686 56.8031 54.7677 56.8016 54.7668C56.8003 54.7659 56.7974 54.7638 56.7928 54.7593L52.5502 59.0019C53.7327 60.1845 55.2889 60.7736 56.8311 60.7736V54.7736ZM56.7928 54.7593L47.5829 45.5493L43.3403 49.7919L52.5501 59.0019L56.7928 54.7593ZM43.8911 45.1145C42.3625 46.0536 40.5687 46.5953 38.6441 46.5953V52.5953C41.7129 52.5953 44.5892 51.7276 47.0321 50.2267L43.8911 45.1145ZM38.6441 46.5953C38.3462 46.5953 38.0477 46.5814 37.7481 46.5548L37.2174 52.5312C37.6834 52.5726 38.1592 52.5953 38.6441 52.5953V46.5953ZM34.9857 47.8802C33.6851 49.8334 31.7702 51.3885 29.1534 52.4599L31.4267 58.0125C35.0227 56.5403 37.9413 54.2671 39.9798 51.2058L34.9857 47.8802ZM29.1533 52.4599C26.6908 53.4682 23.6791 54.0224 20.1492 54.0224V60.0224C24.2878 60.0224 28.0997 59.3747 31.4268 58.0125L29.1533 52.4599ZM20.1492 54.0224C14.9428 54.0224 10.8434 52.7929 8.08883 50.7694L4.53671 55.605C8.61349 58.5997 14.0831 60.0224 20.1492 60.0224V54.0224ZM8.08883 50.7694C4.89028 48.4198 3.11719 44.8278 3.11719 39.5824H-2.88281C-2.88281 46.3522 -0.486843 51.9147 4.53671 55.605L8.08883 50.7694ZM3.11719 39.5824C3.11719 35.812 4.36519 31.9783 6.82533 28.5008L1.92717 25.0356C-1.18542 29.4352 -2.88281 34.4637 -2.88281 39.5824H3.11719ZM6.82533 28.5008C8.61866 25.966 11.042 23.666 13.7622 21.913L10.512 16.8695C7.17601 19.0193 4.18361 21.8461 1.92717 25.0356L6.82533 28.5008ZM13.8523 16.9299C13.8565 16.9329 13.8608 16.9368 13.8653 16.9453C13.868 16.9503 13.8707 16.9568 13.8726 16.9645C13.8747 16.9726 13.8751 16.9789 13.8751 16.9813H7.87512C7.87512 19.0058 8.89372 20.7876 10.4219 21.8526L13.8523 16.9299ZM13.8751 16.9813C13.8751 16.9846 13.8743 16.993 13.8711 17.003C13.8681 17.0121 13.8645 17.0186 13.8617 17.0225C13.858 17.0277 13.8518 17.0345 13.8364 17.0403L11.7423 11.4176C9.49316 12.2552 7.87512 14.4246 7.87512 16.9813H13.8751ZM15.0172 12.2198C14.9418 12.1361 14.8795 12.0673 14.812 11.9921L10.3463 15.9993C10.4201 16.0816 10.497 16.1666 10.5615 16.238L15.0172 12.2198ZM14.8117 11.9918C13.4881 10.5171 12.7061 9.05666 12.3999 7.95142C12.061 6.72826 12.4342 6.60399 12.2151 6.83749L7.83916 2.73251C5.95512 4.74094 6.04435 7.48401 6.61773 9.55346C7.22378 11.7408 8.55026 13.9982 10.3465 15.9996L14.8117 11.9918ZM12.2157 6.83693C12.1662 6.88972 12.1057 6.93925 12.0309 6.97641C11.9438 7.01966 11.8872 7.021 11.901 7.02085C11.9424 7.0204 12.6394 7.03453 14.1518 8.20854L17.831 3.46896C15.7145 1.82601 13.7226 1.00062 11.8356 1.0212C9.86123 1.04274 8.54422 1.98052 7.83864 2.73307L12.2157 6.83693ZM18.7782 6.94944C19.0946 6.15552 19.4609 5.6863 19.7362 5.44685C19.9922 5.22427 20.1276 5.22656 20.1491 5.22656V-0.773438C16.6843 -0.773438 14.3293 1.90615 13.2046 4.72806L18.7782 6.94944ZM20.1491 5.22656C20.1707 5.22656 20.3061 5.22431 20.5621 5.44686C20.8374 5.6863 21.2036 6.15547 21.52 6.9493L27.0936 4.72797C25.9691 1.90632 23.6141 -0.773438 20.1491 -0.773438V5.22656ZM26.1463 8.20851C27.6588 7.03453 28.3558 7.02042 28.3972 7.02088C28.411 7.02103 28.3544 7.01968 28.2673 6.97644C28.1925 6.93929 28.1321 6.88979 28.0827 6.83714L32.4594 2.73286C31.754 1.98067 30.4372 1.04283 28.4628 1.02123C26.5758 1.00059 24.5839 1.8259 22.4673 3.46875L26.1463 8.20851ZM28.083 6.83741C27.864 6.604 28.2372 6.72841 27.8983 7.95158C27.5921 9.05684 26.8101 10.5173 25.4865 11.9919L29.9516 15.9997C31.7479 13.9984 33.0744 11.741 33.6805 9.5536C34.2539 7.48409 34.3431 4.74104 32.4591 2.73259L28.083 6.83741ZM25.4862 11.9922C25.4231 12.0625 25.3666 12.1242 25.2867 12.2123L29.7293 16.245C29.79 16.1782 29.8737 16.0866 29.9519 15.9994L25.4862 11.9922ZM26.4618 17.0403C26.4464 17.0346 26.4401 17.0277 26.4365 17.0226C26.4337 17.0187 26.4301 17.0123 26.4271 17.0032C26.4239 16.9931 26.4231 16.9848 26.4231 16.9814H32.4231C32.4231 14.424 30.8041 12.2542 28.5543 11.417L26.4618 17.0403ZM26.4231 16.9814C26.4231 16.979 26.4235 16.9729 26.4256 16.9648C26.4275 16.957 26.4302 16.9505 26.4329 16.9455C26.4374 16.937 26.4418 16.933 26.446 16.93L29.879 21.8508C31.406 20.7855 32.4231 19.0045 32.4231 16.9814H26.4231ZM26.5393 21.9134C28.458 23.1478 30.2301 24.6527 31.7446 26.3394L36.2091 22.3309C34.3317 20.24 32.1486 18.3877 29.7857 16.8675L26.5393 21.9134ZM35.052 27.1359C36.1661 26.7082 37.3755 26.4724 38.644 26.4724V20.4724C36.6251 20.4724 34.6878 20.8488 32.9018 21.5344L35.052 27.1359ZM38.644 26.4724C44.1892 26.4724 48.7055 30.9887 48.7055 36.5339H54.7055C54.7055 27.6749 47.5029 20.4724 38.644 20.4724V26.4724ZM48.7055 36.5339C48.7055 38.4584 48.1639 40.2522 47.2248 41.7807L52.337 44.9216C53.8379 42.4787 54.7055 39.6025 54.7055 36.5339H48.7055ZM47.6596 45.4725L56.8695 54.6824L61.1121 50.4397L51.9022 41.2299L47.6596 45.4725ZM56.8697 54.6826C56.8748 54.6877 56.8773 54.6911 56.8782 54.6925C56.8791 54.6939 56.8795 54.6947 56.8797 54.6952C56.8799 54.6957 56.8805 54.6973 56.8812 54.7006C56.8818 54.7039 56.8828 54.7104 56.8828 54.7208H62.8828C62.8828 53.1123 62.2532 51.5806 61.1119 50.4395L56.8697 54.6826ZM11.6546 14.8255C12.0447 15.2601 12.4234 15.6749 12.8043 16.0855L17.203 12.0048C16.8442 11.6181 16.4877 11.2276 16.1197 10.8177L11.6546 14.8255ZM15.0036 17.0452H25.2768V11.0452H15.0036V17.0452ZM27.4422 16.1214C27.8339 15.7129 28.2362 15.2793 28.6435 14.8255L24.1783 10.8177C23.8134 11.2243 23.4558 11.6096 23.1113 11.9689L27.4422 16.1214ZM28.6434 14.8255C30.3564 12.9172 31.4125 10.9998 31.918 9.29601C32.1684 8.45224 32.3047 7.58874 32.2702 6.76481C32.2404 6.05023 32.0598 4.8761 31.1769 3.93502L26.8011 8.04014C26.4979 7.71692 26.3746 7.40656 26.3276 7.25932C26.3014 7.17727 26.2888 7.11457 26.2827 7.07693C26.2765 7.03873 26.2756 7.01746 26.2755 7.01553C26.2754 7.01402 26.2772 7.06368 26.2621 7.16847C26.2473 7.27114 26.2185 7.41201 26.1659 7.58925C25.951 8.31355 25.3919 9.46563 24.1784 10.8177L28.6434 14.8255ZM31.1775 3.93562C29.7081 2.36847 27.6872 2.76258 26.8358 3.02361C25.73 3.36266 24.5842 4.03793 23.4429 4.93762L27.1573 9.64965C27.9676 9.0109 28.4514 8.80398 28.5947 8.76003C28.6661 8.73814 28.5262 8.79594 28.2367 8.76986C27.9337 8.74257 27.3275 8.6016 26.8005 8.03953L31.1775 3.93562ZM23.4427 4.93775C23.7903 4.66373 24.2212 4.59191 24.6034 4.69824L22.9953 10.4787C24.4205 10.8752 25.9736 10.5828 27.1574 9.64951L23.4427 4.93775ZM24.6033 4.69819C24.9786 4.80259 25.3595 5.10404 25.5348 5.56952L19.9199 7.68438C20.4498 9.09135 21.6123 10.094 22.9955 10.4788L24.6033 4.69819ZM25.5344 5.56843C25.1222 4.4754 24.5275 3.42611 23.7209 2.59943C22.9299 1.78867 21.7132 0.984375 20.1491 0.984375V6.98438C19.5607 6.98438 19.3258 6.68639 19.4263 6.78943C19.4617 6.82567 19.5354 6.91216 19.6292 7.06877C19.7219 7.22334 19.8232 7.42799 19.9203 7.68547L25.5344 5.56843ZM20.1491 0.984375C18.5849 0.984375 17.3681 1.78882 16.5772 2.59961C15.7707 3.42633 15.1759 4.47567 14.7638 5.56873L20.3779 7.68564C20.475 7.42812 20.5764 7.22343 20.669 7.06883C20.7629 6.91218 20.8366 6.82566 20.872 6.7894C20.9726 6.6863 20.7376 6.98438 20.1491 6.98438V0.984375ZM14.7633 5.56991C14.939 5.10344 15.3204 4.80228 15.695 4.69808L17.3028 10.4786C18.6853 10.0941 19.8483 9.09195 20.3784 7.68446L14.7633 5.56991ZM15.6935 4.6985C16.0771 4.5916 16.5089 4.66401 16.8564 4.93818L13.1397 9.64839C14.3238 10.5828 15.8781 10.8757 17.3044 10.4782L15.6935 4.6985ZM16.855 4.9371C15.714 4.03783 14.5683 3.36259 13.4627 3.02349C12.6113 2.76237 10.59 2.36805 9.12046 3.93575L13.4979 8.03917C12.9711 8.60116 12.365 8.7423 12.0617 8.76962C11.7719 8.79572 11.632 8.73786 11.7034 8.75977C11.8468 8.80376 12.3306 9.01077 13.141 9.64946L16.855 4.9371ZM9.12109 3.93509C8.23842 4.87612 8.05785 6.0501 8.02796 6.76474C7.9935 7.58866 8.1298 8.45215 8.38015 9.29592C8.88568 10.9997 9.94173 12.9171 11.6546 14.8254L16.1198 10.8178C14.9062 9.46564 14.3472 8.31354 14.1323 7.58922C14.0797 7.41198 14.0509 7.27111 14.0361 7.16844C14.021 7.06364 14.0228 7.01398 14.0227 7.01547C14.0226 7.0174 14.0217 7.03866 14.0155 7.07685C14.0094 7.11448 13.9968 7.17716 13.9706 7.25919C13.9237 7.4064 13.8004 7.71668 13.4973 8.03984L9.12109 3.93509ZM9.63293 16.9813C9.63293 19.2878 11.5047 21.1596 13.8112 21.1596V15.1596C14.8184 15.1596 15.6329 15.9741 15.6329 16.9813H9.63293ZM13.8112 21.1596H26.4871V15.1596H13.8112V21.1596ZM26.4871 21.1596C28.7936 21.1596 30.6654 19.2878 30.6654 16.9813H24.6654C24.6654 15.9741 25.4799 15.1596 26.4871 15.1596V21.1596ZM30.6654 16.9813C30.6654 14.6747 28.7936 12.803 26.4871 12.803V18.803C25.4799 18.803 24.6654 17.9885 24.6654 16.9813H30.6654ZM26.4871 12.803H13.8112V18.803H26.4871V12.803ZM13.8112 12.803C11.5047 12.803 9.63293 14.6747 9.63293 16.9813H15.6329C15.6329 17.9885 14.8184 18.803 13.8112 18.803V12.803ZM36.2586 46.3089C34.8917 45.9753 33.6307 45.3602 32.5405 44.5249L28.8916 49.2879C30.626 50.6166 32.6418 51.6023 34.836 52.1378L36.2586 46.3089ZM28.3617 45.047C26.3815 47.5542 23.3646 49.0288 20.1492 49.0288V55.0288C25.2108 55.0288 29.9587 52.7055 33.0703 48.7658L28.3617 45.047ZM20.1492 49.0288C14.3832 49.0288 9.6873 44.3329 9.6873 38.5669H3.6873C3.6873 47.6466 11.0695 55.0288 20.1492 55.0288V49.0288ZM9.6873 38.5669C9.6873 32.8008 14.3832 28.105 20.1492 28.105V22.105C11.0695 22.105 3.6873 29.4871 3.6873 38.5669H9.6873ZM20.1492 28.105C22.5796 28.105 24.8941 28.9343 26.7559 30.4544L30.5506 25.8068C27.6172 23.4117 23.9621 22.105 20.1492 22.105V28.105ZM30.9477 30.0634C31.7371 29.1263 32.6931 28.3354 33.7676 27.7366L30.8472 22.4953C29.1329 23.4505 27.613 24.7092 26.3589 26.1978L30.9477 30.0634ZM34.4983 23.0666C32.3483 20.7681 29.8019 18.7891 27.0499 17.285L24.1723 22.5499C26.3588 23.745 28.3986 25.3288 30.1165 27.1653L34.4983 23.0666ZM25.6111 16.9174H14.6848V22.9174H25.6111V16.9174ZM13.244 17.2861C6.76797 20.832 -1.125 28.7121 -1.125 39.5824H4.875C4.875 31.751 10.6934 25.5232 16.1256 22.5488L13.244 17.2861ZM-1.125 39.5824C-1.125 47.4308 2.26727 52.3454 6.9166 55.1171C11.3208 57.7426 16.5362 58.2645 20.1491 58.2645V52.2645C16.9372 52.2645 13.0155 51.7676 9.98893 49.9634C7.2074 48.3052 4.875 45.3787 4.875 39.5824H-1.125ZM20.1491 58.2645C27.6688 58.2645 34.147 55.9652 37.9254 51.0522L33.1692 47.3945C30.9398 50.2934 26.6087 52.2645 20.1491 52.2645V58.2645ZM28.5826 36.5338C28.5826 36.2668 28.683 35.4582 28.8776 34.3701C29.059 33.3559 29.266 32.4006 29.3771 31.9788L23.5748 30.4513C23.4063 31.0912 23.1667 32.2211 22.9713 33.3139C22.7891 34.3327 22.5826 35.6526 22.5826 36.5338H28.5826ZM28.6912 29.1921C26.3903 26.6724 22.8272 25.8679 20.1492 25.8679V31.8679C21.9623 31.8679 23.5519 32.462 24.2606 33.238L28.6912 29.1921ZM19.7233 25.8982C16.5963 26.3468 13.609 28.0356 11.4114 30.1891C9.24364 32.3134 7.45031 35.2913 7.45031 38.5668H13.4503C13.4503 37.4634 14.1216 35.9339 15.6109 34.4745C17.0704 33.0443 18.9325 32.0731 20.5752 31.8375L19.7233 25.8982ZM7.45031 38.5668C7.45031 42.0048 9.63675 44.9836 11.8068 46.9793C14.0348 49.0283 16.942 50.6932 19.5712 51.2094L20.7273 45.3219C19.4572 45.0725 17.515 44.0774 15.8683 42.563C14.1637 40.9953 13.4503 39.5076 13.4503 38.5668H7.45031ZM20.1492 51.2657C22.1011 51.2657 24.1772 50.7298 25.9803 49.8386C27.7643 48.9569 29.5684 47.5826 30.6639 45.6718L25.4586 42.6876C25.1376 43.2475 24.4217 43.9161 23.3219 44.4597C22.2411 44.9939 21.0693 45.2657 20.1492 45.2657V51.2657ZM30.7254 42.8005C30.3202 42.0177 29.7559 40.7704 29.3005 39.4883C28.8142 38.119 28.5826 37.0663 28.5826 36.5338H22.5826C22.5826 38.1574 23.1259 40.0305 23.6466 41.4965C24.1983 43.0497 24.8734 44.5473 25.3971 45.5589L30.7254 42.8005ZM29.5248 27.2425C26.892 25.0596 23.5943 23.8628 20.1492 23.8628V29.8628C22.1922 29.8628 24.1362 30.5688 25.6953 31.8615L29.5248 27.2425ZM20.1492 23.8628C12.0386 23.8628 5.44512 30.4564 5.44512 38.5669H11.4451C11.4451 33.7701 15.3523 29.8628 20.1492 29.8628V23.8628ZM5.44512 38.5669C5.44512 46.6774 12.0387 53.271 20.1492 53.271V47.271C15.3524 47.271 11.4451 43.3637 11.4451 38.5669H5.44512ZM20.1492 53.271C24.7084 53.271 28.9839 51.161 31.7622 47.5871L27.0252 43.9046C25.378 46.0235 22.8472 47.271 20.1492 47.271V53.271ZM31.5193 43.6289C31.1467 43.2547 30.8027 42.8504 30.4908 42.4198L25.6317 45.9396C26.126 46.622 26.673 47.2654 27.268 47.8629L31.5193 43.6289ZM25.6112 42.4484C24.3684 44.2071 22.3633 45.2657 20.1492 45.2657V51.2657C24.3207 51.2657 28.1492 49.2536 30.5113 45.911L25.6112 42.4484ZM21.2092 45.4592C17.9215 44.2174 16.2112 43.2662 15.1983 42.273C14.3219 41.4137 13.7546 40.3092 13.4152 38.1093L7.48539 39.0242C7.94567 42.0075 8.89218 44.4927 10.9975 46.5571C12.9663 48.4875 15.7057 49.7942 19.0892 51.0722L21.2092 45.4592ZM13.4503 38.5668C13.4503 37.1114 14.3738 35.4418 16.0608 33.9771C16.8652 33.2787 17.7408 32.7231 18.5391 32.3529C19.3821 31.9621 19.9424 31.8679 20.1492 31.8679V25.8679C18.7483 25.8679 17.2924 26.3175 16.0153 26.9096C14.6937 27.5223 13.3455 28.3887 12.1271 29.4465C9.76852 31.4943 7.45031 34.6741 7.45031 38.5668H13.4503ZM20.1492 31.8679C21.7967 31.8679 23.4193 32.4914 24.6358 33.5921L28.6616 29.1432C26.3364 27.0392 23.2771 25.8679 20.1492 25.8679V31.8679ZM29.4022 32.5585C29.6128 32.0716 29.8607 31.6042 30.1428 31.16L25.0774 27.944C24.6275 28.6527 24.2316 29.3989 23.8951 30.1769L29.4022 32.5585ZM38.6441 50.8373C46.5338 50.8373 52.9478 44.4234 52.9478 36.5338H46.9478C46.9478 41.1096 43.2201 44.8373 38.6441 44.8373V50.8373ZM52.9478 36.5338C52.9478 28.6439 46.5338 22.2301 38.6441 22.2301V28.2301C43.2201 28.2301 46.9478 31.9577 46.9478 36.5338H52.9478ZM38.6441 22.2301C30.7544 22.2301 24.3404 28.6441 24.3404 36.5338H30.3404C30.3404 31.9578 34.0681 28.2301 38.6441 28.2301V22.2301ZM24.3404 36.5338C24.3404 44.4235 30.7544 50.8373 38.6441 50.8373V44.8373C34.0681 44.8373 30.3404 41.1097 30.3404 36.5338H24.3404ZM44.7921 48.7577L51.5682 55.5339L55.8109 51.2912L49.0348 44.5151L44.7921 48.7577ZM55.8109 55.5339L57.6444 53.7003L53.4018 49.4577L51.5682 51.2912L55.8109 55.5339ZM57.6444 49.4577L50.8681 42.6815L46.6255 46.9242L53.4018 53.7004L57.6444 49.4577ZM46.4268 42.9009C46.0029 43.418 45.5284 43.8924 45.011 44.3167L48.8158 48.9561C49.6379 48.2819 50.3922 47.5277 51.0668 46.7049L46.4268 42.9009ZM61.125 54.7208C61.125 53.5875 60.6823 52.4961 59.8697 51.6831L55.6261 55.9248C55.2998 55.5983 55.125 55.158 55.125 54.7208H61.125ZM59.8692 51.6826L58.8873 50.7007L54.6446 54.9433L55.6266 55.9253L59.8692 51.6826ZM54.6447 50.7007L52.8111 52.5342L57.0538 56.7769L58.8873 54.9433L54.6447 50.7007ZM52.8111 56.7769L53.793 57.7588L58.0357 53.5161L57.0538 52.5342L52.8111 56.7769ZM53.7933 57.759C55.4702 59.4356 58.1921 59.4359 59.8692 57.7588L55.6266 53.5161C56.2929 52.8499 57.3696 52.8502 58.0354 53.5159L53.7933 57.759ZM59.8687 57.7593C60.6826 56.9458 61.125 55.8536 61.125 54.7208H55.125C55.125 54.2839 55.2995 53.843 55.6271 53.5156L59.8687 57.7593ZM45.5858 30.2928C43.9601 28.9001 41.512 29.0868 40.1171 30.7139L44.6725 34.6189C43.9095 35.5089 42.5707 35.6104 41.6823 34.8494L45.5858 30.2928ZM40.117 30.714L35.1198 36.5441L39.6753 40.4488L44.6726 34.6187L40.117 30.714ZM39.6297 36.4921L37.1123 33.6886L32.648 37.6974L35.1654 40.5008L39.6297 36.4921ZM37.1122 33.6884C35.6808 32.0947 33.2286 31.9631 31.6349 33.394L35.6432 37.8586C34.7718 38.641 33.431 38.5691 32.6482 37.6975L37.1122 33.6884ZM31.6345 33.3943C30.0409 34.8255 29.9086 37.2778 31.3404 38.872L35.8043 34.8628C36.5873 35.7347 36.5148 37.0758 35.6436 37.8583L31.6345 33.3943ZM31.3402 38.8718L34.5269 42.4206L38.9912 38.4118L35.8045 34.863L31.3402 38.8718ZM34.5267 42.4204C35.2629 43.2404 36.3125 43.7079 37.4129 43.7079V37.7079C38.0146 37.7079 38.5887 37.9635 38.9914 38.412L34.5267 42.4204ZM37.4477 43.7077L37.4578 43.7076L37.3882 37.708L37.3781 37.7081L37.4477 43.7077ZM37.4564 43.7076C38.5744 43.6952 39.6315 43.2008 40.3579 42.3535L35.8025 38.4485C36.1996 37.9853 36.7776 37.7148 37.3897 37.708L37.4564 43.7076ZM40.3579 42.3534L46.0072 35.7628L41.4517 31.8579L35.8025 38.4486L40.3579 42.3534ZM46.0068 35.7632C47.402 34.1362 47.2126 31.6868 45.5861 30.2931L41.682 34.8491C40.7926 34.087 40.6888 32.7476 41.4521 31.8575L46.0068 35.7632Z" fill="#274680" mask="url(#path-1-inside-1_33304_66)"/>
</g>
<defs>
<clipPath id="clip0_33304_66">
<rect width="60" height="60" fill="white"/>
</clipPath>
</defs>
</svg>
