<svg width="398" height="329" viewBox="0 0 398 329" fill="none" xmlns="http://www.w3.org/2000/svg">
<path d="M91.4375 229.752H34.5291C31.8861 229.752 29.7305 227.587 29.7305 224.954V222.883C29.7305 220.24 31.8955 218.084 34.5291 218.084H91.4375C94.0805 218.084 96.2361 220.249 96.2361 222.883V224.954C96.2361 227.597 94.0805 229.752 91.4375 229.752Z" fill="#004F8A"/>
<path d="M48.1739 229.752H38.811L28.1641 286.145H37.527L48.1739 229.752Z" fill="#E0E0E0"/>
<path d="M66.8637 229.752H57.5008L52.2617 286.145H61.6246L66.8637 229.752Z" fill="#E0E0E0"/>
<path d="M77.7812 229.752H87.1441L97.8004 286.145H88.4375L77.7812 229.752Z" fill="#E0E0E0"/>
<path d="M172.925 195.551H159.035V199.197H172.925V195.551Z" fill="#E0E0E0"/>
<path d="M60.4433 204.117C59.1218 170.058 57.716 136.196 60.5933 119.12L65.2981 115.793C65.2981 115.793 64.2672 118.98 63.7236 171.155C63.18 223.33 62.5146 196.366 63.0863 204.117H60.4433Z" fill="#0F4D7D"/>
<path d="M68.0126 83.3278C75.2574 64.4521 92.1369 46.223 110.469 38.7627C117.667 35.8385 107.292 100.217 81.1994 104.359C68.4531 106.384 64.4887 139.018 62.333 154.688C61.602 123.863 60.7679 102.204 68.0126 83.3278Z" fill="#0F4D7D"/>
<path d="M66.4641 131.248C71.5626 123.169 79.8946 111.857 92.0692 111.838C105.875 111.829 93.7937 134.547 77.5703 141.81C69.6507 145.353 63.0433 156.6 61.3281 163.648C61.4781 149.374 61.3656 139.327 66.4641 131.248Z" fill="#0F4D7D"/>
<path d="M54.0588 106.825C45.1926 91.1175 25.4358 75.3252 4.40445 68.1367C-3.85252 65.3156 -4.66791 111.849 39.8598 122.983C54.2368 126.582 60.0008 152.037 62.9811 164.83C62.7281 139.966 62.9249 122.533 54.0588 106.825Z" fill="#004F8A"/>
<path d="M58.9132 144.07C53.2617 134.06 37.9006 129.158 24.0952 130.096C18.6687 130.461 18.0782 151.015 48.2476 158.953C57.3949 161.362 61.0876 177.472 62.9902 185.626C62.8215 169.787 64.5553 154.089 58.9132 144.07Z" fill="#004F8A"/>
<path d="M59.4925 91.1833C55.0969 77.1812 42.1538 64.6317 30.2791 59.4488C25.6117 57.415 24.1778 80.6301 49.6797 103.358C57.4119 110.256 59.8486 130.341 61.1139 140.519C61.6856 122.337 63.8881 105.186 59.4925 91.1833Z" fill="#004F8A"/>
<path d="M61.8148 218.084C52.5362 218.084 44.8697 217.409 44.3355 204.86L42.7891 188.393H80.8311L79.2847 204.86C78.7598 217.409 71.0933 218.084 61.8148 218.084Z" fill="#E0E0E0"/>
<path d="M80.9823 195.178H42.6591L41.5625 187.465H82.0788L80.9823 195.178Z" fill="#F0F0F0"/>
<path d="M215.656 328.469C316.017 328.469 397.375 323.719 397.375 317.859C397.375 312 316.017 307.25 215.656 307.25C115.296 307.25 33.9375 312 33.9375 317.859C33.9375 323.719 115.296 328.469 215.656 328.469Z" fill="#102C4B"/>
<path d="M343.819 210.529H62.5854C61.695 210.529 60.9733 209.836 60.9265 208.945L50.8419 1.74324C50.795 0.796644 51.5542 0 52.5008 0H333.735C334.625 0 335.347 0.69355 335.393 1.58392L345.478 208.786C345.525 209.733 344.766 210.529 343.819 210.529Z" fill="#21386C" fill-opacity="0.9"/>
<path opacity="0.8" d="M64.1609 205.544L54.4044 5.14559C54.3575 4.19899 55.1167 3.40234 56.0633 3.40234H330.493C331.383 3.40234 332.105 4.09589 332.152 4.98626L341.908 205.384C341.955 206.331 341.196 207.127 340.249 207.127H65.8198C64.9388 207.127 64.2078 206.434 64.1609 205.544Z" fill="#102C4B"/>
<path d="M133.09 195.928C132.64 195.928 132.265 195.571 132.237 195.122L123.493 15.4926C123.474 15.024 123.83 14.621 124.299 14.6023C124.749 14.5835 125.161 14.9397 125.189 15.4083L133.934 195.037C133.952 195.506 133.596 195.909 133.128 195.928C133.118 195.928 133.099 195.928 133.09 195.928Z" fill="#004F8A"/>
<path d="M271.973 195.928C271.523 195.928 271.148 195.571 271.12 195.122L262.376 15.4926C262.357 15.024 262.713 14.621 263.182 14.6023C263.622 14.5835 264.044 14.9397 264.072 15.4083L272.816 195.037C272.835 195.506 272.479 195.909 272.01 195.928C272.001 195.928 271.982 195.928 271.973 195.928Z" fill="#004F8A"/>
<path d="M202.535 195.928C202.086 195.928 201.711 195.571 201.683 195.122L192.938 15.4926C192.919 15.024 193.276 14.621 193.744 14.6023C194.203 14.5835 194.606 14.9397 194.635 15.4083L203.379 195.037C203.398 195.506 203.042 195.909 202.573 195.928C202.564 195.928 202.545 195.928 202.535 195.928Z" fill="#004F8A"/>
<path d="M324.981 34.0026H64.3099C63.8413 34.0026 63.457 33.6184 63.457 33.1497C63.457 32.6811 63.8413 32.2969 64.3099 32.2969H324.981C325.45 32.2969 325.834 32.6811 325.834 33.1497C325.834 33.6184 325.459 34.0026 324.981 34.0026Z" fill="#004F8A"/>
<path d="M72.1616 23.504C73.4269 23.0073 74.7859 23.101 75.9574 23.8227C76.9321 24.4225 77.457 25.7346 78.6473 25.9783C79.9875 26.2501 80.3999 25.1535 81.3465 24.5256C82.5461 23.729 84.3737 24.0851 85.714 24.1882C89.266 24.46 92.8181 24.7599 96.3702 25.1067C99.8755 25.4441 103.418 26.0439 106.914 25.3597C108.123 25.1254 107.608 23.2791 106.408 23.5134C102.828 24.2163 99.0319 23.4478 95.4517 23.101C91.8528 22.7542 88.2351 22.4262 84.6268 22.1919C83.399 22.1169 82.115 22.0982 80.9622 22.5855C80.3811 22.8292 79.9313 23.1854 79.5001 23.6352C79.3502 23.7852 79.2002 24.0945 78.9565 24.0476C78.8066 24.0195 78.4411 23.4572 78.338 23.3541C76.6885 21.5077 73.9892 20.7486 71.6555 21.6577C70.5215 22.1075 71.0089 23.9539 72.1616 23.504Z" fill="#E0E0E0"/>
<path d="M135.446 26.317C136.871 25.2392 139.017 23.824 140.189 25.9608C140.779 27.0293 141.351 28.3133 142.813 28.0883C144.228 27.8728 145.259 26.0358 146.29 25.1642C147.827 23.8708 149.383 23.4772 151.173 24.5363C152.71 25.436 154.069 26.3732 155.887 26.6263C157.556 26.8606 159.102 26.5232 160.63 25.8671C161.511 25.4829 162.392 25.0142 163.376 24.9767C164.397 24.9393 165.419 25.2954 166.431 25.3798C168.615 25.5578 170.799 25.1455 172.935 24.7518C174.144 24.5269 173.629 22.6805 172.429 22.9055C170.068 23.346 167.753 23.7021 165.363 23.3085C164.482 23.1679 163.648 22.9898 162.748 23.121C161.904 23.2429 161.145 23.5615 160.367 23.8989C158.399 24.7612 156.506 25.1736 154.453 24.2645C152.86 23.5615 151.623 22.2588 149.842 21.9964C148.333 21.7714 146.89 22.3431 145.681 23.2241C144.987 23.7302 144.359 24.3207 143.769 24.9299C143.497 25.2111 143.235 25.5953 142.925 25.8296C142.466 26.1764 142.419 26.1389 142.148 25.6328C141.463 24.3488 140.807 23.2991 139.27 22.9898C137.443 22.6243 135.868 23.6084 134.472 24.6675C133.506 25.3985 134.462 27.0574 135.446 26.317Z" fill="#E0E0E0"/>
<path d="M207.257 25.7933C208.373 25.2684 209.497 24.7904 210.659 24.3781C211.765 23.9844 213.049 23.4221 214.23 23.394C215.308 23.3752 216.255 24.0125 217.286 24.2375C218.101 24.4062 218.888 24.3406 219.647 23.9938C220.322 23.6845 221.006 22.9254 221.747 22.8129C222.581 22.6817 223.284 23.6564 223.996 23.9844C224.727 24.3218 225.524 24.3406 226.311 24.2468C227.033 24.1625 228.101 23.7876 228.767 24.2187C229.395 24.6217 229.582 25.4934 230.257 25.8964C230.847 26.2525 231.578 26.2806 232.188 25.9713C232.862 25.6339 233.237 25.006 233.79 24.5374C234.615 23.8438 235.58 24.2281 236.517 24.453C237.389 24.6592 238.233 24.8186 239.132 24.6967C240.116 24.5655 241.26 23.9376 242.263 24.1344C243.903 24.4624 244.756 26.2056 246.602 25.3059C247.708 24.7623 246.743 23.1128 245.637 23.6564C245.168 23.8813 243.809 22.6817 243.359 22.4942C242.534 22.1474 241.7 22.1662 240.829 22.3443C239.76 22.5598 238.842 22.9535 237.727 22.766C236.836 22.6161 235.983 22.2787 235.065 22.2224C234.249 22.1756 233.5 22.3536 232.834 22.841C232.459 23.1128 231.672 24.3218 231.203 24.2187C230.988 24.1719 230.641 23.4596 230.51 23.2815C230.285 23.0003 230.041 22.7379 229.732 22.5505C229.076 22.1475 228.307 22.0818 227.567 22.1475C226.752 22.2131 225.833 22.5505 225.018 22.3162C224.212 22.0818 223.677 21.2946 222.871 21.0134C221.053 20.3855 220.182 21.8757 218.626 22.3349C217.623 22.6348 216.583 21.9225 215.645 21.6695C214.633 21.3977 213.668 21.4633 212.646 21.7163C210.453 22.2599 208.316 23.1597 206.273 24.125C205.186 24.6686 206.151 26.3181 207.257 25.7933Z" fill="#E0E0E0"/>
<path d="M271.1 25.2781C272.806 24.7907 274.502 24.3034 276.208 23.8254C277.014 23.5911 277.829 23.3099 278.645 23.1318C279.573 22.9256 280.135 23.2443 280.969 23.5536C282.328 24.0597 283.818 24.0597 285.252 24.0409C286.949 24.0222 288.654 24.0034 290.351 23.9753C297.305 23.891 304.269 23.8066 311.223 23.7129C312.451 23.6942 312.46 21.7822 311.223 21.801C304.109 21.8853 296.996 21.979 289.882 22.0634C288.205 22.0821 286.527 22.1196 284.849 22.129C284.024 22.129 283.181 22.1384 282.375 21.9697C281.606 21.8103 280.96 21.3792 280.219 21.173C278.823 20.7888 277.239 21.5385 275.917 21.9134C274.146 22.4195 272.365 22.9256 270.594 23.4317C269.413 23.7785 269.919 25.6248 271.1 25.2781Z" fill="#E0E0E0"/>
<path opacity="0.3" d="M134.638 99.6383L89.3795 102.075C86.774 86.4235 85.6774 68.9254 85.7711 55.9636L129.99 54.2578C130.496 68.3912 132.239 83.7055 134.638 99.6383Z" fill="#407BFF"/>
<path d="M135.669 97.5661L90.4104 100.003C87.8049 84.3512 86.1741 69.1868 85.7617 54.6223L131.02 52.1855C131.527 66.3096 133.27 81.6238 135.669 97.5661Z" fill="#1A3D64"/>
<path opacity="0.3" d="M191.643 116.273L146.141 113.536V68.4277L191.643 71.1644V116.273Z" fill="#407BFF"/>
<path d="M191.04 115.262L145.547 112.516L146.081 67.1543L191.574 69.891L191.04 115.262Z" fill="#0F4D7D"/>
<path opacity="0.3" d="M235.016 107.435L280.491 105.945C281.615 95.4759 276.667 69.168 273.94 59.8145L229.824 62.6168C233.601 79.215 235.223 94.8293 235.016 107.435Z" fill="#407BFF"/>
<path d="M235.791 105.945L279.803 103.677C280.928 93.2078 278.013 76.0659 274.724 58.3242L229.512 61.1921C233.279 77.7998 235.997 93.339 235.791 105.945Z" fill="#1A3D64"/>
<path opacity="0.3" d="M110.281 177.156L156.721 172.441C156.599 161.851 151.153 137.267 147.929 128.045L104.133 133.247C108.791 149.667 108.988 164.55 110.281 177.156Z" fill="#407BFF"/>
<path d="M111.377 176.509L156.139 171.645C156.692 161.101 152.849 144.1 148.613 126.508L103.738 131.841C107.375 148.308 110.889 163.884 111.377 176.509Z" fill="#1A3D64"/>
<path opacity="0.3" d="M223.133 126.639L268.326 135.111C271.728 125.252 272.59 98.7749 271.944 89.1496L227.81 82.2422C227.894 99.0935 226.076 114.52 223.133 126.639Z" fill="#407BFF"/>
<path d="M224.219 125.373L268.128 132.777C271.53 122.918 272.392 105.738 273.02 87.8843L227.78 80.7988C227.883 97.6595 227.171 113.255 224.219 125.373Z" fill="#0F4D7D"/>
<path d="M330.599 84.5273C331.498 85.4739 332.257 86.3081 333.026 87.2266C333.795 88.1263 334.544 89.0354 335.285 89.9633C336.756 91.8096 338.171 93.7122 339.502 95.6803C340.824 97.6673 342.127 99.6636 343.279 101.8C344.451 103.919 345.547 106.102 346.456 108.455L346.803 109.326L346.888 109.551L347 109.87L347.206 110.517C347.319 110.92 347.403 111.323 347.487 111.707C347.544 112.082 347.619 112.457 347.666 112.822C347.834 114.266 347.844 115.578 347.806 116.852C347.731 119.392 347.384 121.773 346.991 124.116C346.147 128.793 344.938 133.235 343.373 137.678L338.434 136.543C338.799 132.129 339.137 127.64 339.259 123.31C339.334 121.145 339.296 118.999 339.155 117.012C339.08 116.018 338.94 115.072 338.752 114.275L338.612 113.722L338.453 113.272L337.918 112.194C336.128 108.567 333.748 104.996 331.217 101.538C329.943 99.8041 328.602 98.1078 327.253 96.4114C326.578 95.5679 325.884 94.7244 325.191 93.909L323.129 91.5097L330.599 84.5273Z" fill="#B65B52"/>
<path d="M339.034 134.695L335.613 138.36L342.286 142.296C342.286 142.296 344.592 139.231 343.692 136.092L339.034 134.695Z" fill="#B55B52"/>
<path d="M331.18 143.777L337.675 146.054L342.286 142.296L335.613 138.359L331.18 143.777Z" fill="#B55B52"/>
<path d="M349.889 158.793L306.992 149.44C309.279 134.388 312.344 120.03 316.346 106.543L359.243 115.896C355.456 129.008 352.466 143.526 349.889 158.793Z" fill="#E0E0E0"/>
<path d="M356.633 117.971L314.551 105.439L302.019 147.522L344.102 160.054L356.633 117.971Z" fill="#0F4D7D"/>
<path d="M306.286 56.4093C306.258 56.9529 305.949 57.384 305.593 57.3653C305.236 57.3465 304.974 56.8966 305.002 56.353C305.03 55.8095 305.339 55.3783 305.696 55.3971C306.052 55.4158 306.314 55.8657 306.286 56.4093Z" fill="#263238"/>
<path d="M305.996 57.3848C305.996 57.3848 304.59 60.4682 303.156 61.9303C304.065 62.8675 305.724 62.5208 305.724 62.5208L305.996 57.3848Z" fill="#A02724"/>
<path d="M308.446 53.4766C308.521 53.4672 308.596 53.4204 308.652 53.3548C308.765 53.2142 308.737 53.0174 308.605 52.9049C307.228 51.8177 305.822 52.277 305.766 52.2957C305.597 52.3519 305.503 52.53 305.559 52.6987C305.616 52.8674 305.794 52.9518 305.962 52.8955C306.009 52.8768 307.106 52.53 308.212 53.4016C308.268 53.4673 308.362 53.486 308.446 53.4766Z" fill="#263238"/>
<path d="M322.593 64.207C321.562 69.1368 320.888 75.9786 324.299 79.2683C324.299 79.2683 322.884 84.2731 313.718 84.2731C303.633 84.2731 308.928 79.8775 308.928 79.8775C313.137 78.5747 313.155 73.8042 312.246 69.971L322.593 64.207Z" fill="#B55B52"/>
<path d="M301.254 311.318C300.392 311.318 299.558 311.196 299.277 310.812C299.183 310.671 299.108 310.446 299.296 310.118C299.399 309.931 299.577 309.809 299.811 309.743C300.936 309.434 303.279 310.784 303.372 310.84C303.429 310.877 303.457 310.943 303.447 311.009C303.438 311.074 303.382 311.13 303.316 311.14C302.894 311.215 302.06 311.318 301.254 311.318ZM300.205 310.006C300.092 310.006 299.989 310.015 299.895 310.043C299.745 310.081 299.642 310.156 299.577 310.268C299.464 310.465 299.502 310.568 299.539 310.624C299.848 311.065 301.554 311.074 302.81 310.896C302.192 310.568 300.992 310.006 300.205 310.006Z" fill="#004F8A"/>
<path d="M303.298 311.13C303.28 311.13 303.252 311.12 303.233 311.111C302.427 310.746 300.833 309.284 300.965 308.524C300.993 308.346 301.124 308.121 301.565 308.074C301.893 308.037 302.183 308.131 302.445 308.346C303.298 309.049 303.448 310.867 303.458 310.942C303.458 310.999 303.439 311.055 303.392 311.083C303.364 311.12 303.326 311.13 303.298 311.13ZM301.686 308.393C301.658 308.393 301.621 308.393 301.593 308.403C301.302 308.431 301.283 308.543 301.283 308.581C301.199 309.04 302.286 310.183 303.111 310.68C303.036 310.146 302.802 309.059 302.249 308.599C302.071 308.468 301.883 308.393 301.686 308.393Z" fill="#004F8A"/>
<path d="M310.994 310.97H304.246L303.777 295.355H310.525L310.994 310.97Z" fill="#B55B52"/>
<path d="M304.018 310.191H311.385C311.657 310.191 311.9 310.379 311.957 310.651L313.213 316.649C313.344 317.267 312.866 317.858 312.229 317.849C309.576 317.802 305.734 317.652 302.397 317.652C298.489 317.652 296.033 317.867 291.45 317.867C288.685 317.867 287.945 315.065 289.107 314.812C294.393 313.659 297.795 313.537 302.388 310.726C302.884 310.407 303.437 310.191 304.018 310.191Z" fill="#263238"/>
<path d="M327.011 80.0746C333.478 80.1402 342.513 96.5511 342.513 96.5511L332.494 106.776C332.494 106.776 325.924 103.721 322.278 96.2511C318.454 88.4347 320.404 80.009 327.011 80.0746Z" fill="#004F8A"/>
<path opacity="0.3" d="M327.011 80.0746C333.478 80.1402 342.513 96.5511 342.513 96.5511L332.494 106.776C332.494 106.776 325.924 103.721 322.278 96.2511C318.454 88.4347 320.404 80.009 327.011 80.0746Z" fill="black"/>
<path d="M296.336 87.5545C294.865 94.8367 293.806 109.804 297.433 139.43H333.507C333.788 134.631 331.464 113.684 334.547 91.1909C335.381 85.1177 330.826 79.6255 324.716 79.2881C324.584 79.2788 324.453 79.2788 324.322 79.2694C319.72 79.0445 313.047 78.9039 308.989 79.2694C307.293 79.4194 305.634 79.6724 304.153 79.9255C300.216 80.6284 297.124 83.6556 296.336 87.5545Z" fill="#004F8A"/>
<path opacity="0.2" d="M296.336 87.5545C294.865 94.8367 293.806 109.804 297.433 139.43H333.507C333.788 134.631 331.464 113.684 334.547 91.1909C335.381 85.1177 330.826 79.6255 324.716 79.2881C324.584 79.2788 324.453 79.2788 324.322 79.2694C319.72 79.0445 313.047 78.9039 308.989 79.2694C307.293 79.4194 305.634 79.6724 304.153 79.9255C300.216 80.6284 297.124 83.6556 296.336 87.5545Z" fill="black"/>
<path opacity="0.2" d="M304.629 102.559L299.774 99.2598C295.088 100.778 294.835 105.333 295.098 111.912C299.118 110.909 303.73 107.086 304.629 102.559Z" fill="black"/>
<path opacity="0.2" d="M303.777 295.354L304.021 303.404H310.769L310.525 295.354H303.777Z" fill="black"/>
<path d="M324.47 55.9982C323.701 62.6525 323.589 66.5888 320.037 69.8785C314.694 74.8271 306.625 71.4343 305.388 64.705C304.272 58.6505 305.716 48.7815 312.389 46.3916C318.959 44.0298 325.238 49.3345 324.47 55.9982Z" fill="#B55B52"/>
<path d="M310.262 58.8465C308.191 59.3151 307.254 54.4322 309.363 52.5577C307.488 51.6205 304.78 50.2615 303.87 48.2277C302.83 45.8847 305.651 43.073 308.069 43.1854C307.291 41.6203 309.025 37.4402 313.955 39.0242C319.007 40.6362 321.228 43.0355 321.228 43.0355C321.228 43.0355 322.859 37.6183 326.298 41.9952C329.354 45.8847 328.145 49.2024 328.145 49.2024C328.145 49.2024 332.671 53.5043 331.5 56.7096C330.328 59.915 327.751 61.0396 327.751 61.0396C327.751 61.0396 328.435 68.5656 322.924 70.3744C317.413 72.1833 313.946 68.4625 314.405 66.3162C310.853 66.4943 307.216 61.7332 310.262 58.8465Z" fill="#263238"/>
<path d="M312.659 58.3499C312.434 60.0838 311.507 61.6771 310.457 62.6987C308.873 64.2263 307.411 63.1298 307.289 61.1522C307.177 59.3715 307.87 56.4286 309.726 55.6413C311.553 54.8728 312.912 56.363 312.659 58.3499Z" fill="#B55B52"/>
<path d="M368.24 302.469L362.242 304.616L356.281 289.179L362.279 287.033L368.24 302.469Z" fill="#B55B52"/>
<path d="M359.577 305.591C358.893 306.125 358.172 306.547 357.712 306.416C357.553 306.369 357.347 306.228 357.3 305.854C357.272 305.638 357.328 305.432 357.469 305.244C358.162 304.307 360.833 303.913 360.946 303.904C361.011 303.895 361.077 303.923 361.105 303.988C361.133 304.045 361.133 304.12 361.086 304.167C360.805 304.495 360.215 305.094 359.577 305.591ZM357.947 305.216C357.862 305.282 357.787 305.357 357.722 305.432C357.628 305.554 357.591 305.675 357.609 305.807C357.637 306.032 357.731 306.088 357.797 306.107C358.312 306.257 359.652 305.216 360.533 304.298C359.849 304.429 358.565 304.729 357.947 305.216Z" fill="#004F8A"/>
<path d="M361.065 304.185C361.046 304.195 361.027 304.213 361.009 304.213C360.146 304.429 357.991 304.27 357.625 303.585C357.541 303.426 357.504 303.173 357.822 302.864C358.056 302.639 358.347 302.526 358.684 302.536C359.79 302.564 361.037 303.895 361.084 303.951C361.121 303.988 361.14 304.054 361.121 304.11C361.112 304.138 361.093 304.166 361.065 304.185ZM358.113 303.032C358.085 303.051 358.066 303.07 358.038 303.098C357.832 303.295 357.888 303.398 357.907 303.435C358.131 303.848 359.687 304.073 360.643 303.96C360.25 303.595 359.406 302.882 358.675 302.864C358.45 302.845 358.272 302.911 358.113 303.032Z" fill="#004F8A"/>
<path d="M361.097 302.966L366.889 298.411C367.104 298.242 367.423 298.242 367.639 298.402L372.615 302.113C373.131 302.497 373.149 303.238 372.634 303.622C370.516 305.234 366.43 308.524 363.936 310.745C361.022 313.341 363.29 311.607 359.869 314.644C357.798 316.481 355.267 314.99 355.961 314.035C359.1 309.705 359.766 307.127 360.169 304.362C360.244 303.809 360.637 303.331 361.097 302.966Z" fill="#263238"/>
<path d="M262.585 104.293L259.951 98.623L252.781 103.056C252.781 103.056 255.143 107.883 260.035 107.349L262.585 104.293Z" fill="#B55B52"/>
<path d="M253.212 97.0851L251.609 98.4628C250.569 99.3532 250.541 100.956 251.534 101.893L252.781 103.055L259.951 98.6222L255.649 96.7196C254.833 96.3634 253.887 96.504 253.212 97.0851Z" fill="#B55B52"/>
<path opacity="0.2" d="M356.281 289.179L359.355 297.137L365.354 294.99L362.279 287.033L356.281 289.179Z" fill="black"/>
<path d="M310.223 139.429C310.223 139.429 321.479 191.23 325.781 210.452C330.495 231.512 355.294 295.524 355.294 295.524L366.184 289.62C366.184 289.62 354.535 239.394 346.025 211.999C342.941 189.355 333.503 139.42 333.503 139.42H310.223V139.429Z" fill="#263238"/>
<path d="M352.231 292.337C352.184 292.356 354.462 296.554 354.462 296.554L367.939 291.493L366.871 287.379L352.231 292.337Z" fill="#004F8A"/>
<path opacity="0.3" d="M316.841 163.442C325.332 164.576 326.288 194.483 326.129 212.037C326.007 211.485 325.885 210.95 325.773 210.454C323.42 199.957 319.006 179.722 315.473 163.536C315.894 163.405 316.354 163.377 316.841 163.442Z" fill="black"/>
<path d="M297.432 139.43C297.432 139.43 294.564 189.853 295.032 210.415C295.52 231.803 301.527 301.842 301.527 301.842H312.952C312.952 301.842 314.817 233.049 315.595 212.046C316.438 189.14 321.134 139.43 321.134 139.43H297.432Z" fill="#263238"/>
<path d="M299.39 297.295C299.334 297.295 299.971 302.037 299.971 302.037H313.87L314.302 297.801L299.39 297.295Z" fill="#004F8A"/>
<path d="M307.15 91.0415C305.594 93.8344 303.822 96.4774 301.948 99.0267C300.055 101.557 298.012 103.956 295.856 106.234C293.719 108.511 291.46 110.667 289.155 112.71C286.877 114.753 284.412 116.712 282.247 118.493L281.479 119.13L280.851 119.355C279.173 119.955 277.468 120.067 276.006 119.889C274.534 119.721 273.25 119.336 272.088 118.877C269.773 117.949 267.908 116.703 266.183 115.4C264.478 114.079 262.941 112.663 261.507 111.173C260.794 110.423 260.12 109.655 259.454 108.868C258.779 108.08 258.17 107.312 257.523 106.412L261.216 102.954C262.659 104.022 264.196 105.184 265.743 106.178C267.28 107.209 268.826 108.165 270.373 108.98C271.91 109.795 273.475 110.461 274.843 110.798C275.528 110.976 276.146 111.042 276.615 111.014C277.093 110.986 277.365 110.883 277.505 110.779L276.099 111.642C278.386 109.496 280.457 107.593 282.519 105.578C284.562 103.572 286.521 101.52 288.386 99.4109C290.242 97.2928 292.032 95.1278 293.672 92.8878C295.331 90.6572 296.831 88.3235 298.265 85.9805L307.15 91.0415Z" fill="#B65B52"/>
<path d="M311.949 89.6234C311.302 99.3237 300.177 107.468 300.177 107.468L285.734 99.5486C285.734 99.5486 291.058 88.1238 298.218 82.7254C307.075 76.0617 312.436 82.2381 311.949 89.6234Z" fill="#004F8A"/>
<path opacity="0.2" d="M311.949 89.6234C311.302 99.3237 300.177 107.468 300.177 107.468L285.734 99.5486C285.734 99.5486 291.058 88.1238 298.218 82.7254C307.075 76.0617 312.436 82.2381 311.949 89.6234Z" fill="black"/>
</svg>
