<svg width="60" height="60" viewBox="0 0 60 60" fill="none" xmlns="http://www.w3.org/2000/svg">
<g clip-path="url(#clip0_33304_17)">
<g clip-path="url(#clip1_33304_17)">
<path d="M23.3433 41.4432C23.3431 41.443 23.3429 41.4428 23.3427 41.4427L23.3432 41.4431L23.3433 41.4432ZM24.0041 30.527C24.0041 30.527 24.0041 30.527 24.0041 30.527L24.0041 30.527Z" stroke="#274680" stroke-width="3"/>
<path d="M36.327 42.0462C36.0467 42.0462 35.7681 41.9279 35.5725 41.6974C35.2176 41.2811 35.2679 40.656 35.6841 40.3011L41.208 35.597L35.6841 30.8929C35.2679 30.5386 35.2176 29.9134 35.5725 29.4966C35.9268 29.0804 36.5525 29.0301 36.9682 29.385L43.3781 34.843C43.5992 35.0315 43.7264 35.3068 43.7264 35.597C43.7264 35.8878 43.5992 36.163 43.3781 36.3515L36.9682 41.8096C36.7819 41.9682 36.5536 42.0462 36.327 42.0462Z" fill="#005AAB"/>
<path d="M27.7304 46.1402C27.6624 46.1402 27.5939 46.1331 27.5248 46.1187C26.9897 46.0059 26.647 45.4802 26.7597 44.9451L30.7546 25.9779C30.8674 25.4428 31.3925 25.1001 31.9282 25.2129C32.4632 25.3256 32.806 25.8508 32.6932 26.3864L28.6983 45.3536C28.5999 45.8202 28.1887 46.1402 27.7304 46.1402Z" fill="#005AAB"/>
<path d="M53.3491 56.4738H6.65094C2.98386 56.4738 0 53.4905 0 49.8229V10.1881C0 6.52097 2.98386 3.53711 6.65094 3.53711H53.3491C57.0162 3.53711 60 6.52097 60 10.1881V49.8229C60 53.4905 57.0162 56.4738 53.3491 56.4738ZM6.65094 5.51824C4.07614 5.51824 1.98113 7.61324 1.98113 10.1881V49.8229C1.98113 52.3977 4.07614 54.4927 6.65094 54.4927H53.3491C55.9239 54.4927 58.0189 52.3977 58.0189 49.8229V10.1881C58.0189 7.61324 55.9239 5.51824 53.3491 5.51824H6.65094Z" fill="#005AAB"/>
<path d="M59.0094 19.3991H0.990566C0.443323 19.3991 0 18.9558 0 18.4085C0 17.8618 0.443323 17.418 0.990566 17.418H59.0094C59.5567 17.418 60 17.8618 60 18.4085C60 18.9558 59.5567 19.3991 59.0094 19.3991Z" fill="#005AAB"/>
<path d="M16.9238 14.6602C15.1959 14.6602 13.7891 13.2534 13.7891 11.5254C13.7891 9.79688 15.1959 8.39062 16.9238 8.39062C18.6523 8.39062 20.0586 9.79688 20.0586 11.5254C20.0586 13.2534 18.6523 14.6602 16.9238 14.6602ZM16.9238 10.3718C16.2881 10.3718 15.7702 10.8892 15.7702 11.5254C15.7702 12.1616 16.2881 12.679 16.9238 12.679C17.5601 12.679 18.0775 12.1616 18.0775 11.5254C18.0775 10.8892 17.5601 10.3718 16.9238 10.3718Z" fill="#005AAB"/>
<path d="M7.29492 14.6289C5.56641 14.6289 4.16016 13.2227 4.16016 11.4941C4.16016 9.76563 5.56641 8.35938 7.29492 8.35938C9.02344 8.35938 10.4297 9.76563 10.4297 11.4941C10.4297 13.2227 9.02344 14.6289 7.29492 14.6289ZM7.29492 10.3405C6.65924 10.3405 6.14129 10.8585 6.14129 11.4941C6.14129 12.1304 6.65924 12.6478 7.29492 12.6478C7.93116 12.6478 8.44856 12.1304 8.44856 11.4941C8.44856 10.8585 7.93116 10.3405 7.29492 10.3405Z" fill="#005AAB"/>
<path d="M26.5561 14.6889C24.8281 14.6889 23.4219 13.2826 23.4219 11.5541C23.4219 9.82617 24.8281 8.41992 26.5561 8.41992C28.2846 8.41992 29.6909 9.82617 29.6909 11.5541C29.6909 13.2826 28.2846 14.6889 26.5561 14.6889ZM26.5561 10.4005C25.9204 10.4005 25.403 10.9179 25.403 11.5541C25.403 12.1904 25.9204 12.7078 26.5561 12.7078C27.1923 12.7078 27.7097 12.1904 27.7097 11.5541C27.7097 10.9179 27.1923 10.4005 26.5561 10.4005Z" fill="#005AAB"/>
</g>
</g>
<defs>
<clipPath id="clip0_33304_17">
<rect width="60" height="60" fill="white"/>
</clipPath>
<clipPath id="clip1_33304_17">
<rect width="60" height="60" fill="white"/>
</clipPath>
</defs>
</svg>
