<?xml version="1.0" encoding="UTF-8"?>
<svg version="1.1" xmlns="http://www.w3.org/2000/svg" width="64" height="64">
<path d="M0 0 C8.34468007 4.97590182 13.53387008 11.86345977 16.109375 21.2578125 C17.10789012 32.35758522 16.45884702 41.9922991 9.359375 51.0703125 C3.70168013 57.1280464 -3.34488592 60.84888618 -11.625 61.59375 C-22.35447774 61.83515993 -31.19802606 60.58332943 -39.359375 52.9609375 C-46.75303791 44.73737365 -48.47252567 36.02335615 -48.203125 25.24609375 C-47.72879865 16.86039919 -44.11592977 9.8548755 -37.890625 4.2578125 C-27.15195714 -3.81766573 -12.32399863 -5.91386512 0 0 Z M-38.390625 9.5703125 C-39.73412934 11.35120015 -39.73412934 11.35120015 -40.890625 13.2578125 C-41.30054688 13.90234375 -41.71046875 14.546875 -42.1328125 15.2109375 C-45.70995773 21.87182862 -45.94810544 28.87159415 -44.890625 36.2578125 C-42.40751037 43.79489895 -38.68850529 50.01615992 -31.890625 54.2578125 C-31.24609375 54.66773438 -30.6015625 55.07765625 -29.9375 55.5 C-23.27660888 59.07714523 -16.27684335 59.31529294 -8.890625 58.2578125 C-1.35353855 55.77469787 4.86772242 52.05569279 9.109375 45.2578125 C9.51929688 44.61328125 9.92921875 43.96875 10.3515625 43.3046875 C13.92870773 36.64379638 14.16685544 29.64403085 13.109375 22.2578125 C10.62626037 14.72072605 6.90725529 8.49946508 0.109375 4.2578125 C-0.53515625 3.84789062 -1.1796875 3.43796875 -1.84375 3.015625 C-13.99364227 -3.50931715 -29.08574691 -0.38590705 -38.390625 9.5703125 Z " fill="#FFFFFF" transform="translate(47.890625,2.7421875)"/>
<path d="M0 0 C1.04269043 -0.00574036 1.04269043 -0.00574036 2.10644531 -0.01159668 C3.57228041 -0.0143118 5.03816428 -0.00697835 6.50390625 0.00976562 C8.74328975 0.03118581 10.97946587 0.00995557 13.21875 -0.015625 C14.64584039 -0.01298165 16.07292879 -0.0078565 17.5 0 C19.44132812 0.00676758 19.44132812 0.00676758 21.421875 0.01367188 C24.75 0.53125 24.75 0.53125 27.16992188 2.11132812 C29.34170852 5.43746366 29.26745575 7.8242722 29.28125 11.78125 C29.2850769 12.47637695 29.28890381 13.17150391 29.29284668 13.88769531 C29.2955618 15.35353041 29.28822835 16.81941428 29.27148438 18.28515625 C29.25006419 20.52453975 29.27129443 22.76071587 29.296875 25 C29.29423165 26.42709039 29.2891065 27.85417879 29.28125 29.28125 C29.27673828 30.57546875 29.27222656 31.8696875 29.26757812 33.203125 C28.75 36.53125 28.75 36.53125 27.16992188 38.95117188 C23.84378634 41.12295852 21.4569778 41.04870575 17.5 41.0625 C16.80487305 41.0663269 16.10974609 41.07015381 15.39355469 41.07409668 C13.92771959 41.0768118 12.46183572 41.06947835 10.99609375 41.05273438 C8.75671025 41.03131419 6.52053413 41.05254443 4.28125 41.078125 C2.85415961 41.07548165 1.42707121 41.0703565 0 41.0625 C-1.29421875 41.05798828 -2.5884375 41.05347656 -3.921875 41.04882812 C-7.25 40.53125 -7.25 40.53125 -9.66992188 38.95117188 C-11.84170852 35.62503634 -11.76745575 33.2382278 -11.78125 29.28125 C-11.7850769 28.58612305 -11.78890381 27.89099609 -11.79284668 27.17480469 C-11.7955618 25.70896959 -11.78822835 24.24308572 -11.77148438 22.77734375 C-11.75006419 20.53796025 -11.77129443 18.30178413 -11.796875 16.0625 C-11.79423165 14.63540961 -11.7891065 13.20832121 -11.78125 11.78125 C-11.77673828 10.48703125 -11.77222656 9.1928125 -11.76757812 7.859375 C-11.25 4.53125 -11.25 4.53125 -9.66992188 2.11132812 C-6.34378634 -0.06045852 -3.9569778 0.01379425 0 0 Z M-7.11962891 4.66162109 C-8.78188493 7.41098537 -8.63893688 9.64792239 -8.6484375 12.84375 C-8.65230469 14.08382813 -8.65617188 15.32390625 -8.66015625 16.6015625 C-8.64855469 17.89835937 -8.63695312 19.19515625 -8.625 20.53125 C-8.63660156 21.82804687 -8.64820313 23.12484375 -8.66015625 24.4609375 C-8.65628906 25.70101562 -8.65242187 26.94109375 -8.6484375 28.21875 C-8.64505371 29.35699219 -8.64166992 30.49523437 -8.63818359 31.66796875 C-8.45024327 34.47996592 -8.45024327 34.47996592 -7.11962891 36.40087891 C-4.37026463 38.06313493 -2.13332761 37.92018688 1.0625 37.9296875 C2.30257813 37.93355469 3.54265625 37.93742187 4.8203125 37.94140625 C6.11710937 37.92980469 7.41390625 37.91820312 8.75 37.90625 C10.69519531 37.92365234 10.69519531 37.92365234 12.6796875 37.94140625 C13.91976562 37.93753906 15.15984375 37.93367188 16.4375 37.9296875 C17.57574219 37.92630371 18.71398437 37.92291992 19.88671875 37.91943359 C22.69871592 37.73149327 22.69871592 37.73149327 24.61962891 36.40087891 C26.28188493 33.65151463 26.13893688 31.41457761 26.1484375 28.21875 C26.15230469 26.97867188 26.15617187 25.73859375 26.16015625 24.4609375 C26.14855469 23.16414063 26.13695312 21.86734375 26.125 20.53125 C26.13660156 19.23445313 26.14820313 17.93765625 26.16015625 16.6015625 C26.15435547 14.74144531 26.15435547 14.74144531 26.1484375 12.84375 C26.14505371 11.70550781 26.14166992 10.56726563 26.13818359 9.39453125 C25.95024327 6.58253408 25.95024327 6.58253408 24.61962891 4.66162109 C21.87026463 2.99936507 19.63332761 3.14231312 16.4375 3.1328125 C15.19742188 3.12894531 13.95734375 3.12507812 12.6796875 3.12109375 C11.38289063 3.13269531 10.08609375 3.14429688 8.75 3.15625 C6.80480469 3.13884766 6.80480469 3.13884766 4.8203125 3.12109375 C3.58023437 3.12496094 2.34015625 3.12882813 1.0625 3.1328125 C-0.64486328 3.13788818 -0.64486328 3.13788818 -2.38671875 3.14306641 C-5.19871592 3.33100673 -5.19871592 3.33100673 -7.11962891 4.66162109 Z " fill="#FFFFFF" transform="translate(23.25,11.46875)"/>
<path d="M0 0 C3.02508145 1.73602105 5.41790069 3.83580137 7 7 C7.68128376 13.81283762 7.68128376 13.81283762 5.953125 16.82421875 C2.82207185 20.62752744 1.13366332 21.88663367 -3.75 22.375 C-7.10058068 22.35058775 -8.84894532 21.75601354 -11.4375 19.625 C-14.88331435 16.0951414 -15.39555836 14.0716348 -15.359375 9.10546875 C-14.72418186 5.38406547 -12.66020984 3.59687151 -10 1 C-6.77140153 -0.61429923 -3.49006347 -0.59570657 0 0 Z M-9.875 5.125 C-12.18205087 7.82739783 -12.18205087 7.82739783 -12.625 11 C-11.76814736 15.11289267 -10.42264067 16.59686932 -7 19 C-3.45404442 19 -1.13823859 18.72088444 1.875 16.8125 C3.49294043 14.2058182 3.81342578 12.04737897 4 9 C2.87981101 5.63943304 2.05465901 5.03643934 -1 3 C-5.0745864 2.37995424 -6.52063935 2.64568996 -9.875 5.125 Z " fill="#FFFFFF" transform="translate(36,21)"/>
<path d="M0 0 C1.66611905 -0.042721 3.33382885 -0.04063832 5 0 C6 1 6 1 6.0625 3.5625 C6.041875 4.366875 6.02125 5.17125 6 6 C3.625 6.625 3.625 6.625 1 7 C0.34 6.34 -0.32 5.68 -1 5 C-0.625 2.375 -0.625 2.375 0 0 Z " fill="#FFFFFF" transform="translate(41,17)"/>
</svg>
