<?xml version="1.0" encoding="UTF-8"?>
<svg version="1.1" xmlns="http://www.w3.org/2000/svg" width="64" height="47">
<path d="M0 0 C1.19463867 -0.00315216 2.38927734 -0.00630432 3.62011719 -0.009552 C4.91594727 -0.00752777 6.21177734 -0.00550354 7.546875 -0.00341797 C8.88444028 -0.00409136 10.22200545 -0.00506168 11.55957031 -0.00631714 C14.36394413 -0.00779245 17.16828612 -0.0056449 19.97265625 -0.00097656 C23.5708469 0.00472064 27.16896297 0.00144075 30.76715088 -0.00454903 C33.52946537 -0.00815913 36.29176213 -0.00701398 39.05407715 -0.00442123 C41.02726286 -0.00342784 43.00044926 -0.00646967 44.97363281 -0.009552 C46.16827148 -0.00639984 47.36291016 -0.00324768 48.59375 0 C49.64916992 0.00079559 50.70458984 0.00159119 51.79199219 0.00241089 C54.296875 0.12939453 54.296875 0.12939453 56.296875 1.12939453 C56.339596 2.79551358 56.33751332 4.46322338 56.296875 6.12939453 C54.51771033 7.9085592 51.91374201 7.25704288 49.5078125 7.25878906 C48.2698291 7.26194122 47.0318457 7.26509338 45.75634766 7.26834106 C44.39485641 7.26655128 43.03336549 7.26450033 41.671875 7.26220703 C40.28564436 7.26288012 38.89941383 7.26385019 37.51318359 7.2651062 C34.60448078 7.26658293 31.69580863 7.26442943 28.78710938 7.25976562 C25.05090902 7.25406834 21.31478048 7.25734748 17.57858276 7.26333809 C14.71508234 7.26694438 11.85159907 7.2658048 8.98809814 7.2632103 C7.61012768 7.26254122 6.23215568 7.2633688 4.85418701 7.26568985 C2.93143746 7.26821745 1.00868248 7.26368477 -0.9140625 7.25878906 C-2.55834229 7.25759567 -2.55834229 7.25759567 -4.23583984 7.25637817 C-6.703125 7.12939453 -6.703125 7.12939453 -7.703125 6.12939453 C-7.74376332 4.46322338 -7.745846 2.79551358 -7.703125 1.12939453 C-5.03212217 -0.20610688 -2.99081276 0.00225452 0 0 Z " fill="#3D82BF" transform="translate(7.703125,39.87060546875)"/>
<path d="M0 0 C1.8569751 -0.00472824 1.8569751 -0.00472824 3.75146484 -0.009552 C5.11295609 -0.00776222 6.47444701 -0.00571127 7.8359375 -0.00341797 C9.22216814 -0.00409106 10.60839867 -0.00506113 11.99462891 -0.00631714 C14.90333172 -0.00779387 17.81200387 -0.00564037 20.72070312 -0.00097656 C24.45690348 0.00472073 28.19303202 0.00144159 31.92922974 -0.00454903 C34.79273016 -0.00815532 37.65621343 -0.00701574 40.51971436 -0.00442123 C41.89768482 -0.00375215 43.27565682 -0.00457973 44.65362549 -0.00690079 C46.57637504 -0.00942839 48.49913002 -0.0048957 50.421875 0 C52.06615479 0.00119339 52.06615479 0.00119339 53.74365234 0.00241089 C56.2109375 0.12939453 56.2109375 0.12939453 57.2109375 1.12939453 C57.2109375 2.77939453 57.2109375 4.42939453 57.2109375 6.12939453 C36.0909375 6.12939453 14.9709375 6.12939453 -6.7890625 6.12939453 C-6.7890625 -0.78711178 -6.24342002 0.00453137 0 0 Z " fill="#1F6EB5" transform="translate(6.7890625,19.87060546875)"/>
<path d="M0 0 C21.12 0 42.24 0 64 0 C64 1.65 64 3.3 64 5 C62.22083533 6.77916467 59.61686701 6.12764835 57.2109375 6.12939453 C55.9729541 6.13254669 54.7349707 6.13569885 53.45947266 6.13894653 C52.09798141 6.13715675 50.73649049 6.1351058 49.375 6.1328125 C47.98876936 6.13348559 46.60253883 6.13445566 45.21630859 6.13571167 C42.30760578 6.1371884 39.39893363 6.1350349 36.49023438 6.13037109 C32.75403402 6.12467381 29.01790548 6.12795294 25.28170776 6.13394356 C22.41820734 6.13754985 19.55472407 6.13641027 16.69122314 6.13381577 C15.31325268 6.13314668 13.93528068 6.13397426 12.55731201 6.13629532 C10.63456246 6.13882292 8.71180748 6.13429024 6.7890625 6.12939453 C5.14478271 6.12820114 5.14478271 6.12820114 3.46728516 6.12698364 C1 6 1 6 0 5 C0 3.35 0 1.7 0 0 Z " fill="#1F6EB5" transform="translate(0,0)"/>
</svg>
